<?xml version="1.0" encoding="UTF-8"?>
<svg width="164px" height="36px" viewBox="0 0 164 36" version="1.1" xmlns="http://www.w3.org/2000/svg" xmlns:xlink="http://www.w3.org/1999/xlink">
    <!-- Generator: Sketch 53.2 (72643) - https://sketchapp.com -->
    <title>Support/support-logo</title>
    <desc>Created with Sketch.</desc>
    <g id="Support/support-logo" stroke="none" stroke-width="1" fill="none" fill-rule="evenodd">
        <g id="Lockups/Red-Roundel-+-White-Text-(horizontal)" transform="translate(0.000000, 1.000000)">
            <g id="Group">
                <g id="Pocket-Casts-Roundel---Red">
                    <g id="Group">
                        <path d="M32.5588235,16.2794118 C32.5588235,25.2704706 25.2704706,32.5588235 16.2794118,32.5588235 C7.28835294,32.5588235 0,25.2704706 0,16.2794118 C0,7.28835294 7.28835294,0 16.2794118,0 C25.2704706,0 32.5588235,7.28835294 32.5588235,16.2794118" id="Fill-23" fill="#F43E37"></path>
                        <g id="Glyph---White" transform="translate(3.617647, 3.617647)" fill="#FFFFFF">
                            <path d="M0,12.5612745 C0,5.62387416 5.62387416,0 12.5612745,0 C19.4986749,0 25.122549,5.62387416 25.122549,12.5612745 L21.9822304,12.5612745 C21.9822304,7.35822425 17.7643248,3.14031863 12.5612745,3.14031863 C7.35822425,3.14031863 3.14031863,7.35822425 3.14031863,12.5612745 C3.14031863,17.7643248 7.35822425,21.9822304 12.5612745,21.9822304 L12.5612745,25.122549 C5.62387416,25.122549 0,19.4986749 0,12.5612745 Z M12.5612745,20.0980392 C8.3988343,20.0980392 5.0245098,16.7237147 5.0245098,12.5612745 C5.0245098,8.3988343 8.3988343,5.0245098 12.5612745,5.0245098 C16.7237147,5.0245098 20.0980392,8.3988343 20.0980392,12.5612745 L17.3573975,12.5612745 C17.3573975,9.91244892 15.2101001,7.76515152 12.5612745,7.76515152 C9.91244892,7.76515152 7.76515152,9.91244892 7.76515152,12.5612745 C7.76515152,15.2101001 9.91244892,17.3573975 12.5612745,17.3573975 L12.5612745,20.0980392 Z" id="Path"></path>
                        </g>
                    </g>
                </g>
                <g id="Group-30" transform="translate(42.205882, 6.632353)" fill="#FFFFFF">
                    <path d="M4.96835588,10.4329324 C6.84229706,10.4329324 7.77926765,9.41938824 7.77926765,7.26688824 C7.77926765,5.06313824 6.84229706,4.22746176 5.01900294,4.22746176 L4.10675294,4.22746176 L4.10675294,10.4329324 L4.96835588,10.4329324 Z M0.206929412,18.7149324 L0.206929412,0.985447059 L5.01900294,0.985447059 C9.34992941,0.985447059 11.6802971,3.03665294 11.6802971,7.14027059 C11.6802971,11.7244324 8.91942941,13.6243 5.12029706,13.6243 L4.13207647,13.6243 L4.13207647,18.7149324 L0.206929412,18.7149324 Z" id="Fill-1"></path>
                    <path d="M17.5288868,8.43158971 C16.388725,8.43158971 15.6802691,9.64772206 15.6802691,12.1300309 C15.6802691,14.6370603 16.4140485,15.8785162 17.5795338,15.8785162 C18.7190926,15.8785162 19.453475,14.6370603 19.453475,12.1553544 C19.453475,9.64772206 18.6937691,8.43158971 17.5288868,8.43158971 M17.5542103,18.9685897 C14.5654309,18.9685897 12.1844162,16.6629426 12.1844162,12.1806779 C12.1844162,7.64656029 14.5907544,5.31619265 17.5795338,5.31619265 C20.5429897,5.31619265 22.948725,7.64656029 22.948725,12.1300309 C22.948725,16.6376191 20.5429897,18.9685897 17.5542103,18.9685897" id="Fill-3"></path>
                    <path d="M29.6077279,18.9177015 C26.0871544,18.9177015 24.0100221,16.4607162 24.0100221,12.1804368 C24.0100221,8.00145147 26.1378015,5.36720147 29.8103162,5.36720147 C30.9758015,5.36720147 31.8615221,5.59511324 32.723125,5.92431912 L32.1654044,9.11568676 C31.5576397,8.83712794 30.8491838,8.60921618 30.1141985,8.60921618 C28.4169191,8.60921618 27.5311985,10.0779809 27.5311985,12.1297897 C27.5311985,14.3582603 28.4169191,15.6756868 30.1648456,15.6756868 C30.8238603,15.6756868 31.5069926,15.4730985 32.241375,15.1945397 L32.7990956,18.2586868 C31.9121691,18.6391426 30.7478897,18.9177015 29.6077279,18.9177015" id="Fill-5"></path>
                    <polygon id="Fill-7" points="37.9128809 12.4336721 37.9128809 18.7151132 34.2403662 18.7151132 34.2403662 0.453230882 37.9128809 0.453230882 37.9128809 11.2681868 40.9016603 5.59511324 44.9287044 5.59511324 41.3574838 11.8765544 45.0299985 18.7151132 40.9523074 18.7151132"></polygon>
                    <path d="M51.6385956,11.2684279 C51.562625,9.29319265 50.9795809,8.12770735 49.8659485,8.12770735 C48.7257868,8.12770735 48.1433456,9.34383971 48.0667721,11.2684279 L51.6385956,11.2684279 Z M44.6474926,12.2060015 C44.6474926,7.69720735 46.9531397,5.31619265 49.8659485,5.31619265 C52.9554191,5.31619265 55.0325515,7.67188382 55.0325515,12.2819721 L55.0325515,13.4721779 L48.0667721,13.4721779 C48.1939926,15.2707515 49.1816103,16.1564721 50.8023162,16.1564721 C51.7652132,16.1564721 52.9047721,15.8531926 53.9430368,15.3720456 L54.6020515,17.9550456 C53.3352721,18.5887368 51.8411838,18.9179426 50.4224632,18.9179426 C47.2057721,18.9179426 44.6474926,17.2206632 44.6474926,12.2060015 L44.6474926,12.2060015 Z" id="Fill-9"></path>
                    <path d="M57.1321735,14.7889412 L57.1321735,8.60939706 L55.7134529,8.60939706 L55.7134529,5.59529412 L57.1321735,5.59529412 L57.1321735,2.15069118 L60.7793647,2.15069118 L60.7793647,5.59529412 L63.5655559,5.59529412 L63.5655559,8.60939706 L60.7793647,8.60939706 L60.7793647,14.2571471 C60.7793647,15.3466618 61.3624088,15.8024853 62.3494235,15.8024853 C62.7805265,15.8024853 63.1603794,15.7265147 63.5655559,15.6252206 L63.5655559,18.614 C63.0084382,18.7912647 62.2228059,18.8925588 61.3117618,18.8925588 C58.5255706,18.8925588 57.1321735,17.7523971 57.1321735,14.7889412" id="Fill-11"></path>
                    <path d="M76.0247324,18.9177015 C71.4146441,18.9177015 68.5271588,15.9795691 68.5271588,9.87539265 C68.5271588,3.99973088 71.4906147,0.783039706 76.0500559,0.783039706 C77.5700706,0.783039706 78.8362471,1.08692206 79.8238647,1.466775 L79.2161,5.06271618 C78.4310706,4.73411324 77.5194235,4.43023088 76.4299088,4.43023088 C73.99885,4.43023088 72.5548059,6.35481912 72.5548059,9.82474559 C72.5548059,13.3959662 73.9228794,15.2705103 76.5058794,15.2705103 C77.4941,15.2705103 78.4310706,15.0166721 79.2414235,14.6621426 L79.8745118,18.1573926 C78.7856,18.6138191 77.4434529,18.9177015 76.0247324,18.9177015" id="Fill-13"></path>
                    <path d="M87.2421515,15.9288618 L87.2421515,12.8134647 C86.8876221,12.7374941 86.4824456,12.7121706 86.0519456,12.7121706 C85.2922397,12.7121706 84.8617397,12.8641118 84.5578574,13.1426706 C84.2792985,13.4471559 84.1267544,13.9029794 84.1267544,14.5607882 C84.1267544,15.8782147 84.7097985,16.4100088 85.7221368,16.4100088 C86.2292103,16.4100088 86.7610044,16.2074206 87.2421515,15.9288618 M84.2033279,18.8923176 C82.1515191,18.8923176 80.707475,17.5748912 80.707475,14.7380529 C80.707475,13.4724794 81.0626074,12.4082882 81.7463426,11.7492735 C82.480725,10.9901706 83.5696368,10.6103176 85.2162691,10.6103176 C85.9253279,10.6103176 86.6343868,10.7116118 87.2421515,10.8382294 L87.2421515,10.1032441 C87.2421515,8.98900882 86.7356809,8.38064118 85.3682103,8.38064118 C84.3046221,8.38064118 83.1644603,8.68512647 82.1515191,9.11562647 L81.4677838,6.32943529 C82.7846074,5.79764118 84.3299456,5.39246471 86.0266221,5.39246471 C89.3446074,5.39246471 90.8392985,6.81058235 90.8392985,9.82468529 L90.8392985,16.3846853 L91.1178574,18.7150529 L87.9264897,18.7150529 L87.4706662,17.5748912 C86.5077691,18.4111706 85.5707985,18.8923176 84.2033279,18.8923176" id="Fill-15"></path>
                    <path d="M97.0670176,18.9429647 C95.2943706,18.9429647 93.6477382,18.4871412 92.2296206,17.7268324 L92.9640029,14.7633765 C94.3574,15.5236853 95.7495912,15.9795088 97.0163706,15.9795088 C97.9539441,15.9795088 98.4604147,15.5743324 98.4604147,15.0166118 C98.4604147,14.4594941 98.1565324,14.2068618 96.3832824,13.4978029 C93.9262971,12.5095824 92.7107676,11.5720088 92.7107676,9.36886176 C92.7107676,6.9372 94.3827235,5.36714118 97.3202529,5.36714118 C98.8143412,5.36714118 100.182415,5.72167059 101.423871,6.32943529 L100.688885,9.29289118 C99.5493265,8.71045 98.3844441,8.32999412 97.3202529,8.32999412 C96.5352235,8.32999412 96.1047235,8.65980294 96.1047235,9.19159706 C96.1047235,9.69806765 96.3832824,9.95130294 98.1312088,10.6609647 C100.892076,11.7492735 101.853768,12.7628176 101.853768,14.8393471 C101.853768,17.5748912 99.9291794,18.9429647 97.0670176,18.9429647" id="Fill-17"></path>
                    <path d="M104.080972,14.7889412 L104.080972,8.60939706 L102.662251,8.60939706 L102.662251,5.59529412 L104.080972,5.59529412 L104.080972,2.15069118 L107.728163,2.15069118 L107.728163,5.59529412 L110.514354,5.59529412 L110.514354,8.60939706 L107.728163,8.60939706 L107.728163,14.2571471 C107.728163,15.3466618 108.311207,15.8024853 109.298222,15.8024853 C109.729325,15.8024853 110.109178,15.7265147 110.514354,15.6252206 L110.514354,18.614 C109.957237,18.7912647 109.171604,18.8925588 108.26056,18.8925588 C105.474369,18.8925588 104.080972,17.7523971 104.080972,14.7889412" id="Fill-19"></path>
                    <path d="M116.591399,18.9429647 C114.818751,18.9429647 113.172119,18.4871412 111.754001,17.7268324 L112.488384,14.7633765 C113.881781,15.5236853 115.273972,15.9795088 116.540751,15.9795088 C117.478325,15.9795088 117.984796,15.5743324 117.984796,15.0166118 C117.984796,14.4594941 117.680913,14.2068618 115.907663,13.4978029 C113.450678,12.5095824 112.235149,11.5720088 112.235149,9.36886176 C112.235149,6.9372 113.907104,5.36714118 116.844634,5.36714118 C118.338722,5.36714118 119.706796,5.72167059 120.948251,6.32943529 L120.213266,9.29289118 C119.073707,8.71045 117.908825,8.32999412 116.844634,8.32999412 C116.059604,8.32999412 115.629104,8.65980294 115.629104,9.19159706 C115.629104,9.69806765 115.907663,9.95130294 117.65559,10.6609647 C120.416457,11.7492735 121.378149,12.7628176 121.378149,14.8393471 C121.378149,17.5748912 119.45356,18.9429647 116.591399,18.9429647" id="Fill-21"></path>
                </g>
            </g>
        </g>
    </g>
</svg>