<?xml version="1.0" encoding="UTF-8"?>
<svg xmlns="http://www.w3.org/2000/svg" xmlns:xlink="http://www.w3.org/1999/xlink" width="431.7pt" height="182.2pt" viewBox="0 0 431.7 182.2" version="1.1">
<defs>
<clipPath id="clip1">
  <path d="M 176 23 L 256 23 L 256 182.199219 L 176 182.199219 Z M 176 23 "/>
</clipPath>
<clipPath id="clip2">
  <path d="M 352 28 L 431.699219 28 L 431.699219 154 L 352 154 Z M 352 28 "/>
</clipPath>
<clipPath id="clip3">
  <path d="M 0 62 L 431.699219 62 L 431.699219 125 L 0 125 Z M 0 62 "/>
</clipPath>
</defs>
<g id="surface1">
<path style=" stroke:none;fill-rule:evenodd;fill:rgb(92.576599%,54.492188%,13.330078%);fill-opacity:1;" d="M 264.523438 47.347656 C 264.441406 31.546875 264.496094 15.742188 264.496094 -0.0625 C 290.8125 -0.046875 317.128906 -0.0585938 343.445313 -0.0546875 C 343.441406 15.742188 343.472656 31.539063 343.433594 47.335938 C 317.121094 47.328125 290.824219 47.304688 264.523438 47.347656 Z M 264.488281 138.953125 C 290.808594 138.960938 317.128906 138.953125 343.449219 138.957031 C 343.449219 147.59375 343.449219 156.230469 343.445313 164.867188 C 317.132813 164.871094 290.816406 164.851563 264.496094 164.871094 C 264.472656 156.234375 264.488281 147.59375 264.488281 138.953125 Z M 264.488281 138.953125 "/>
<path style=" stroke:none;fill-rule:evenodd;fill:rgb(38.426208%,13.719177%,40.795898%);fill-opacity:1;" d="M 88.519531 10.558594 C 114.859375 10.585938 141.195313 10.570313 167.53125 10.570313 C 167.523438 22.828125 167.578125 35.085938 167.503906 47.34375 C 141.164063 47.308594 114.835938 47.335938 88.503906 47.328125 C 88.402344 37.144531 88.488281 26.953125 88.460938 16.769531 C 88.492188 14.699219 88.386719 12.628906 88.519531 10.558594 Z M 88.503906 138.949219 C 114.847656 138.960938 141.191406 138.957031 167.535156 138.953125 C 167.535156 147.59375 167.546875 156.234375 167.53125 164.871094 C 141.175781 164.851563 114.816406 164.882813 88.457031 164.859375 C 88.488281 156.222656 88.398438 147.585938 88.503906 138.949219 Z M 88.503906 138.949219 "/>
<g clip-path="url(#clip1)" clip-rule="nonzero">
<path style=" stroke:none;fill-rule:evenodd;fill:rgb(98.046875%,78.125%,7.835388%);fill-opacity:1;" d="M 176.480469 23.597656 C 202.777344 23.566406 229.074219 23.640625 255.367188 23.5625 C 255.40625 23.726563 255.484375 24.054688 255.523438 24.21875 C 255.5625 31.871094 255.484375 39.53125 255.5625 47.1875 C 254.777344 47.414063 253.953125 47.316406 253.15625 47.328125 C 227.597656 47.324219 202.039063 47.328125 176.480469 47.324219 C 176.476563 39.414063 176.476563 31.503906 176.480469 23.597656 Z M 176.476563 138.96875 C 202.828125 138.957031 229.183594 138.929688 255.535156 138.980469 C 255.523438 153.363281 255.53125 167.742188 255.527344 182.125 C 229.179688 182.148438 202.828125 182.136719 176.476563 182.125 C 176.476563 167.742188 176.480469 153.355469 176.476563 138.96875 Z M 176.476563 138.96875 "/>
</g>
<g clip-path="url(#clip2)" clip-rule="nonzero">
<path style=" stroke:none;fill-rule:evenodd;fill:rgb(77.34375%,21.556091%,15.281677%);fill-opacity:1;" d="M 352.414063 28.40625 C 378.871094 28.402344 405.328125 28.398438 431.789063 28.40625 C 431.78125 34.714844 431.789063 41.019531 431.78125 47.324219 C 405.328125 47.328125 378.871094 47.328125 352.414063 47.324219 C 352.414063 41.019531 352.414063 34.710938 352.414063 28.40625 Z M 352.414063 138.964844 C 378.871094 138.949219 405.328125 138.953125 431.789063 138.960938 C 431.785156 143.671875 431.789063 148.386719 431.789063 153.101563 C 405.328125 153.101563 378.871094 153.117188 352.410156 153.09375 C 352.421875 148.382813 352.414063 143.667969 352.414063 138.964844 Z M 352.414063 138.964844 "/>
</g>
<path style=" stroke:none;fill-rule:evenodd;fill:rgb(19.604492%,57.226563%,77.34375%);fill-opacity:1;" d="M 0.0976563 34.472656 C 5.566406 34.351563 11.039063 34.453125 16.511719 34.414063 C 37.496094 34.414063 58.492188 34.414063 79.480469 34.414063 C 79.488281 38.714844 79.464844 43.011719 79.492188 47.304688 C 53.027344 47.335938 26.5625 47.359375 0.0976563 47.289063 Z M 0.0976563 138.96875 C 26.558594 138.933594 53.019531 138.96875 79.480469 138.957031 C 79.460938 150.933594 79.527344 162.914063 79.445313 174.890625 C 52.996094 174.863281 26.542969 174.894531 0.0976563 174.875 Z M 0.0976563 138.96875 "/>
<g clip-path="url(#clip3)" clip-rule="nonzero">
<path style=" stroke:none;fill-rule:evenodd;fill:rgb(0%,0%,0%);fill-opacity:1;" d="M 10.171875 65.722656 C 14.019531 63.539063 18.460938 62.558594 22.84375 62.328125 C 29.460938 61.699219 36.351563 62.972656 42.089844 66.398438 C 45.410156 68.425781 48.515625 71.214844 49.984375 74.894531 C 46.777344 76.890625 43.59375 78.921875 40.390625 80.929688 C 39.371094 81.554688 38.402344 82.28125 37.289063 82.746094 C 34.957031 78.578125 30.148438 76.097656 25.421875 76.175781 C 23.632813 76.164063 21.628906 76.242188 20.195313 77.460938 C 18.917969 78.527344 18.933594 80.613281 19.976563 81.835938 C 21.167969 83.253906 22.976563 83.9375 24.664063 84.570313 C 30.972656 86.703125 37.808594 87.714844 43.449219 91.472656 C 46.90625 93.710938 49.496094 97.328125 50.179688 101.414063 C 50.984375 106.253906 50.429688 111.605469 47.472656 115.660156 C 44.882813 119.246094 40.699219 121.261719 36.539063 122.414063 C 31.941406 123.582031 27.179688 123.992188 22.445313 123.960938 C 20.859375 123.636719 19.234375 123.734375 17.632813 123.589844 C 13.621094 123.003906 9.652344 121.996094 5.945313 120.335938 C 3.867188 119.535156 2.039063 118.246094 0.0976563 117.191406 L 0.0976563 116.792969 C 0.5625 116.089844 0.742188 115.261719 0.992188 114.472656 C 2.3125 110.410156 3.617188 106.339844 4.953125 102.28125 C 10.476563 107.457031 18.160156 110.308594 25.726563 109.941406 C 27.863281 109.902344 30.117188 109.691406 31.976563 108.546875 C 33.277344 107.753906 33.609375 106.007813 33.199219 104.621094 C 32.835938 103.472656 31.902344 102.605469 30.894531 101.996094 C 28.601563 100.621094 25.972656 99.988281 23.429688 99.253906 C 19.488281 98.203125 15.496094 97.1875 11.792969 95.445313 C 8.761719 93.996094 5.898438 91.929688 4.164063 88.996094 C 1.765625 84.96875 1.625 79.964844 2.691406 75.496094 C 3.703125 71.382813 6.484375 67.789063 10.171875 65.722656 Z M 204.511719 67.445313 C 209.3125 64.371094 214.972656 62.914063 220.609375 62.46875 C 226.789063 62.097656 233.175781 62.589844 238.914063 65.066406 C 243.316406 66.996094 247.410156 70.339844 249.078125 74.96875 C 244.796875 77.605469 240.574219 80.359375 236.222656 82.882813 C 233.855469 78.886719 229.285156 76.371094 224.675781 76.230469 C 220.722656 76.132813 216.464844 76.84375 213.371094 79.480469 C 210.414063 81.96875 209.179688 85.855469 208.765625 89.574219 C 208.371094 94.132813 208.664063 98.972656 210.886719 103.070313 C 212.578125 106.273438 215.695313 108.59375 219.1875 109.496094 C 222.058594 110.207031 225.140625 110.488281 228.007813 109.605469 C 231.378906 108.542969 234.351563 106.316406 236.421875 103.464844 C 240.636719 106.039063 244.851563 108.617188 249.070313 111.179688 C 247.851563 114.582031 245.183594 117.273438 242.253906 119.285156 C 237.679688 122.359375 232.140625 123.628906 226.703125 123.972656 C 220.570313 124.21875 214.285156 123.640625 208.546875 121.316406 C 203.84375 119.445313 199.644531 116.203125 196.867188 111.945313 C 194.09375 107.78125 192.679688 102.851563 192.152344 97.910156 C 191.527344 91.816406 191.925781 85.484375 194.269531 79.769531 C 196.277344 74.71875 199.914063 70.347656 204.511719 67.445313 Z M 53.539063 62.863281 C 70.839844 62.859375 88.132813 62.863281 105.425781 62.859375 C 105.429688 67.394531 105.425781 71.929688 105.425781 76.464844 C 99.464844 76.496094 93.496094 76.414063 87.53125 76.507813 C 87.546875 92.148438 87.566406 107.789063 87.527344 123.433594 C 82.105469 123.402344 76.683594 123.429688 71.265625 123.414063 C 71.246094 108.503906 71.277344 93.585938 71.246094 78.671875 C 71.28125 77.933594 71.28125 77.191406 71.167969 76.460938 C 65.292969 76.476563 59.417969 76.46875 53.539063 76.464844 C 53.539063 71.929688 53.539063 67.398438 53.539063 62.863281 Z M 113.984375 62.859375 C 119.453125 62.867188 124.914063 62.859375 130.386719 62.859375 C 130.390625 83.042969 130.394531 103.234375 130.382813 123.414063 C 124.914063 123.417969 119.453125 123.414063 113.984375 123.414063 C 113.980469 103.234375 113.980469 83.042969 113.984375 62.859375 Z M 138.945313 62.867188 C 156.242188 62.859375 173.535156 62.859375 190.828125 62.867188 C 190.828125 67.398438 190.828125 71.933594 190.828125 76.464844 C 184.90625 76.453125 178.980469 76.507813 173.058594 76.433594 L 172.871094 76.441406 L 172.691406 76.460938 C 172.546875 91.777344 172.671875 107.121094 172.617188 122.449219 C 172.632813 122.871094 172.429688 123.082031 172.003906 123.070313 C 167.585938 123.066406 163.164063 123.054688 158.746094 123.082031 C 158.152344 123.109375 157.515625 122.96875 156.960938 123.230469 C 156.867188 123.269531 156.683594 123.339844 156.585938 123.371094 C 156.507813 107.742188 156.570313 92.109375 156.558594 76.476563 C 150.695313 76.46875 144.835938 76.453125 138.972656 76.484375 C 138.914063 71.945313 138.964844 67.40625 138.945313 62.867188 Z M 255.265625 62.867188 C 260.738281 62.855469 266.210938 62.871094 271.679688 62.859375 C 271.726563 70.9375 271.601563 79.019531 271.746094 87.089844 C 279.441406 87.027344 287.140625 87.105469 294.839844 87.046875 C 294.863281 78.988281 294.839844 70.925781 294.851563 62.863281 C 300.296875 62.859375 305.746094 62.863281 311.203125 62.859375 C 311.203125 83.042969 311.203125 103.234375 311.199219 123.414063 C 305.746094 123.414063 300.300781 123.417969 294.851563 123.414063 C 294.84375 115.664063 294.855469 107.914063 294.847656 100.164063 C 287.132813 100.132813 279.421875 100.171875 271.710938 100.144531 C 271.644531 107.902344 271.703125 115.660156 271.679688 123.414063 C 266.21875 123.429688 260.757813 123.402344 255.296875 123.433594 C 255.234375 103.246094 255.289063 83.054688 255.265625 62.867188 Z M 319.503906 62.871094 C 335.414063 62.855469 351.320313 62.863281 367.234375 62.867188 C 367.226563 67.246094 367.246094 71.632813 367.222656 76.011719 C 356.835938 76.027344 346.449219 75.972656 336.070313 76.039063 C 335.777344 76.539063 335.992188 77.21875 335.933594 77.785156 C 335.953125 80.796875 335.914063 83.804688 335.953125 86.8125 C 342.261719 86.828125 348.578125 86.765625 354.890625 86.84375 C 354.851563 90.996094 354.902344 95.164063 354.867188 99.324219 C 348.5625 99.320313 342.261719 99.332031 335.964844 99.316406 C 335.90625 102.945313 335.953125 106.570313 335.941406 110.199219 C 346.371094 110.199219 356.800781 110.191406 367.234375 110.203125 C 367.234375 114.605469 367.234375 119.011719 367.234375 123.414063 C 351.328125 123.429688 335.425781 123.414063 319.519531 123.417969 C 319.492188 103.238281 319.523438 83.054688 319.503906 62.871094 Z M 375.492188 62.882813 C 384.433594 62.835938 393.371094 62.878906 402.316406 62.863281 C 408.285156 62.808594 414.515625 63.359375 419.828125 66.328125 C 424.191406 68.675781 427.445313 72.953125 428.515625 77.800781 C 429.628906 82.730469 429.425781 88.035156 427.609375 92.773438 C 426.007813 96.984375 422.675781 100.351563 418.761719 102.484375 C 423.109375 109.449219 427.492188 116.394531 431.78125 123.394531 C 425.328125 123.429688 418.871094 123.453125 412.414063 123.382813 C 409.195313 117.484375 405.878906 111.636719 402.578125 105.78125 C 398.996094 105.824219 395.414063 105.71875 391.839844 105.835938 C 391.871094 111.699219 391.871094 117.566406 391.839844 123.429688 C 386.421875 123.40625 381.011719 123.429688 375.597656 123.417969 C 375.453125 121.835938 375.554688 120.253906 375.585938 118.664063 C 375.394531 115.414063 375.597656 112.15625 375.488281 108.90625 C 375.441406 106.3125 375.695313 103.722656 375.511719 101.128906 C 375.492188 88.382813 375.53125 75.628906 375.492188 62.882813 Z M 391.824219 76.203125 C 391.90625 81.574219 391.828125 86.9375 391.863281 92.304688 C 391.933594 92.367188 392.074219 92.484375 392.144531 92.539063 C 396.019531 92.574219 399.890625 92.535156 403.761719 92.554688 C 406.023438 92.558594 408.410156 92.289063 410.378906 91.078125 C 412.179688 89.972656 413.253906 87.929688 413.4375 85.855469 C 413.796875 83.148438 413.363281 80.011719 411.203125 78.121094 C 409.140625 76.367188 406.328125 76.136719 403.746094 76.011719 C 400.199219 76.003906 396.652344 76.023438 393.101563 76.003906 C 392.660156 75.980469 392.230469 76.046875 391.824219 76.203125 Z M 391.824219 76.203125 "/>
</g>
<path style=" stroke:none;fill-rule:evenodd;fill:rgb(0%,0%,0%);fill-opacity:1;" d="M 172.871094 76.441406 L 173.058594 76.433594 C 173.285156 77.144531 173.09375 77.921875 173.132813 78.660156 C 173.121094 92.09375 173.128906 105.527344 173.128906 118.960938 C 173.148438 120.246094 173.039063 121.535156 173.246094 122.804688 C 172.984375 123.003906 172.753906 122.792969 172.765625 122.496094 C 172.863281 107.71875 172.777344 92.886719 172.804688 78.085938 C 172.835938 77.539063 172.714844 76.972656 172.871094 76.441406 Z M 17.632813 123.589844 C 19.234375 123.734375 20.859375 123.636719 22.445313 123.960938 C 20.828125 124.046875 19.21875 123.859375 17.632813 123.589844 Z M 17.632813 123.589844 "/>
<path style=" stroke:none;fill-rule:evenodd;fill:rgb(0%,0%,0%);fill-opacity:1;" d="M 156.585938 123.371094 C 156.683594 123.339844 156.867188 123.265625 156.960938 123.230469 C 161.972656 123.265625 166.980469 123.257813 171.988281 123.246094 C 172.386719 123.222656 172.777344 123.34375 173.089844 123.59375 C 168.683594 123.558594 164.273438 123.59375 159.863281 123.578125 C 158.695313 123.5625 157.523438 123.660156 156.363281 123.464844 Z M 156.585938 123.371094 "/>
</g>
</svg>
