<svg id="Layer_1" data-name="Layer 1" xmlns="http://www.w3.org/2000/svg" viewBox="0 0 888.21 146.18"><defs><style>.cls-1{fill:#40a0ff;}.cls-1,.cls-2{fill-rule:evenodd;}.cls-2{fill:#808285;}</style></defs><path class="cls-1" d="M297.11,293.77a72.3,72.3,0,0,0,.62-9.66c.44-32.09-27.44-56.76-58.52-56.94-7.61,0-11.42,0-19,0-31.09.18-58.88,24.55-58.51,56.94a76.31,76.31,0,0,0,.56,9.74,32.78,32.78,0,0,0-5.17,21.88l.25,2.46c1.71,16.28,14,28.33,27.54,26.91l.72-.07c9.21,17.28,25.51,28.21,44.11,28.28h0a2.74,2.74,0,0,0,2.73-2.74v-9.73a2.74,2.74,0,0,0-2.73-2.74v0c-18.9,0-35.94-23.11-35.94-46.37,0-23,17-46.5,35.87-46.5h0a2.73,2.73,0,0,0,2.73-2.74v-9.61a2.74,2.74,0,0,0-2.7-2.74v0c-20.29,0-37.84,13-46.46,33.06l-4.88.52c-.25,0-.49.09-.74.12-1.13-24.31,21.27-41.85,45.27-42,6.14,0,9.21,0,15.35,0,24,.14,44.63,17.73,43.86,42.05-.38-.06-.75-.14-1.13-.18l-7.81-.83h0l-.08,0a3.09,3.09,0,0,0-3.39,2.75l-5.81,55.28a3.07,3.07,0,0,0,2.75,3.39h.07l7.81.82c13.5,1.42,25.83-10.63,27.54-26.91l.26-2.46A32.82,32.82,0,0,0,297.11,293.77Z" transform="translate(-156.86 -227.13)"/><polygon class="cls-2" points="197.09 62 197.09 115.44 179.35 115.44 179.35 62 152.73 62 152.73 44.26 223.72 44.26 223.72 62 197.09 62"/><path class="cls-2" d="M446.63,322.26c-2.36-2.37-4.73-4.93-7.3-7.49a22.85,22.85,0,0,0,10.85-7.89,21,21,0,0,0,4.53-13.21,21.65,21.65,0,0,0-6.7-15.58,20.93,20.93,0,0,0-15.58-6.7h-48.9v71.18h17.75V316h14.39c1,1.18,2.17,2.17,3.35,3.35,3,3.16,6.31,6.51,9.87,10.06,4.73,4.92,8.28,8.28,10.44,10.45a8.88,8.88,0,0,0,6.32,2.76,8.5,8.5,0,0,0,6.3-2.76,9.6,9.6,0,0,0,0-12.63C450.77,326.2,449,324.62,446.63,322.26Zm-11.44-25.44a3.88,3.88,0,0,1-2.76,1.18H401.28v-8.87h31.15a4.79,4.79,0,0,1,4.14,4.54A3.65,3.65,0,0,1,435.19,296.82Z" transform="translate(-156.86 -227.13)"/><path class="cls-2" d="M517.81,281.84A33.93,33.93,0,0,0,493,271.39a35.35,35.35,0,0,0-35.5,35.49v35.69h17.76V324.62h35.48v17.95h17.56V306.88C528.27,297.22,524.71,288.94,517.81,281.84Zm-42.58,25a16.83,16.83,0,0,1,5.11-12.42A16.53,16.53,0,0,1,493,289.13a17,17,0,0,1,12.42,5.33,18.67,18.67,0,0,1,5.32,12.42Z" transform="translate(-156.86 -227.13)"/><path class="cls-2" d="M587,339.81c-3.55-3.36-6.9-6.71-10.25-10.06s-6.7-6.7-10.06-10.25c-3.35,3.55-6.9,6.9-10.25,10.25s-6.7,6.7-10.25,10.06a8.37,8.37,0,0,1-12.42,0,9,9,0,0,1,0-12.63l10.05-10.05,10.26-10.25c-3.56-3.35-6.91-6.71-10.26-9.86-3.35-3.35-6.7-6.9-10.05-10.46a7.87,7.87,0,0,1-2.57-6.1,8.76,8.76,0,0,1,2.57-6.51,8,8,0,0,1,6.3-2.56,8.75,8.75,0,0,1,6.12,2.76l10.25,10.25c3.35,3.35,6.9,6.71,10.25,10.06q5-5,10.06-10.06L587,274.15a9.17,9.17,0,0,1,6.31-2.76,8.34,8.34,0,0,1,6.31,2.56,9.44,9.44,0,0,1,2.37,6.51,8.44,8.44,0,0,1-2.37,6.1c-3.55,3.56-6.9,7.11-10.25,10.46-3.35,3.15-6.7,6.51-10.06,9.86,3.36,3.55,6.71,6.9,10.06,10.25s6.7,6.7,10.25,10.05a9.6,9.6,0,0,1,0,12.63,8.52,8.52,0,0,1-6.31,2.76A9.21,9.21,0,0,1,587,339.81Z" transform="translate(-156.86 -227.13)"/><path class="cls-2" d="M627.45,315.75a21.28,21.28,0,0,1-15.78-6.51,20.81,20.81,0,0,1-6.5-15.57,21.45,21.45,0,0,1,6.5-15.58,20.76,20.76,0,0,1,15.78-6.7h48.7v17.74h-48.7c-3.16,0-4.54,1.58-4.54,4.54a4,4,0,0,0,1.18,2.95,4.73,4.73,0,0,0,3.36,1.38h26.42a21.16,21.16,0,0,1,15.58,6.51,21.94,21.94,0,0,1,6.5,15.78,21.61,21.61,0,0,1-6.5,15.77,21.16,21.16,0,0,1-15.58,6.51h-48.7V324.43h48.7a4.72,4.72,0,0,0,3-1.19,4.16,4.16,0,0,0,1.38-2.95,4.67,4.67,0,0,0-1.38-3.16,4.08,4.08,0,0,0-3-1.38Z" transform="translate(-156.86 -227.13)"/><path class="cls-2" d="M739.44,281.84a35.23,35.23,0,0,0-50.08,0c-6.9,7.1-10.45,15.38-10.45,25a35.7,35.7,0,0,0,35.49,35.69,34.06,34.06,0,0,0,25-10.46c6.91-6.89,10.06-15.37,10.06-25.23A34.33,34.33,0,0,0,739.44,281.84ZM727,319.5a17.74,17.74,0,0,1-30.36-12.62,17.61,17.61,0,0,1,5.12-12.42,18,18,0,0,1,30.57,12.42A16.54,16.54,0,0,1,727,319.5Z" transform="translate(-156.86 -227.13)"/><path class="cls-2" d="M889.5,322.26c-2.37-2.37-4.73-4.93-7.3-7.49a24.41,24.41,0,0,0,11-7.89,22.17,22.17,0,0,0,4.33-13.21,22.9,22.9,0,0,0-22.28-22.28H826.4v71.18h17.75V316h14.39c1,1.18,2.17,2.17,3.35,3.35,3.16,3.16,6.31,6.51,9.86,10.06l10.45,10.45a9.21,9.21,0,0,0,6.31,2.76,8.52,8.52,0,0,0,6.31-2.76,9.07,9.07,0,0,0,0-12.63C893.63,326.2,891.87,324.62,889.5,322.26Zm-11.44-25.44A3.86,3.86,0,0,1,875.3,298H844.15v-8.87H875.3a4.79,4.79,0,0,1,4.14,4.54A3.65,3.65,0,0,1,878.06,296.82Z" transform="translate(-156.86 -227.13)"/><path class="cls-2" d="M935.83,342.57a35.55,35.55,0,0,1-25-60.73,34,34,0,0,1,25-10.45h35.3v17.74h-35.3a16.79,16.79,0,0,0-12.61,5.33,17.62,17.62,0,0,0-5.13,12.42,17.11,17.11,0,0,0,5.13,12.62,16.64,16.64,0,0,0,12.61,5.12h35.3v17.95Z" transform="translate(-156.86 -227.13)"/><path class="cls-2" d="M992,324.62h53v17.95h-71V271.39h71v17.74H992V298h53v17.75H992Z" transform="translate(-156.86 -227.13)"/><path class="cls-2" d="M805.54,271.39v35.49a17.11,17.11,0,0,1-5.13,12.62,17.7,17.7,0,0,1-24.88,0,17.07,17.07,0,0,1-5.13-12.62V271.39H752.66v35.49a34.32,34.32,0,0,0,10.25,25.23A34.79,34.79,0,0,0,788,342.56h.66v0A34.84,34.84,0,0,0,813,332.11a34.33,34.33,0,0,0,10.26-25.23V271.39Z" transform="translate(-156.86 -227.13)"/></svg>